<?xml version="1.0" encoding="UTF-8"?><svg xmlns="http://www.w3.org/2000/svg" viewBox="0 0 195.48 254.98"><defs><style>.f{fill:#fff;}.g{fill-rule:evenodd;}.g,.h{fill:none;stroke:#fff;stroke-linecap:round;stroke-linejoin:round;stroke-width:3px;}</style></defs><g id="a"/><g id="b"><g id="c"><g><rect class="h" x="81.47" y="198.03" width="33.52" height="19.25"/><rect class="h" x="46.38" y="232.54" width="14.24" height="20.94"/><path class="g" d="M53.51,232.54h89.46c0-8.39-6.87-15.26-15.26-15.26h-58.94c-8.39,0-15.26,6.87-15.26,15.26h0Z"/><polyline class="g" points="69.17 17.97 83.33 42.49 90.16 38.55 75.83 13.74"/><path class="g" d="M64.84,2.59c3.87-2.23,8.82-.91,11.05,2.96,2.23,3.87,.91,8.82-2.96,11.05-3.87,2.23-8.82,.91-11.05-2.96-2.23-3.87-.91-8.82,2.96-11.05Z"/><path class="g" d="M79.22,35.82c-17.7,7.47-30.19,25.03-30.19,45.36v35.07h98.42v-35.07c0-27.06-22.14-49.21-49.21-49.21h0c-3.83,0-7.55,.44-11.13,1.28"/><path class="g" d="M147.44,106.22v-25.04c0-5.12-.8-10.07-2.27-14.73h-60.27c-2.83,5.89-4.44,12.67-4.44,19.88s1.61,13.99,4.44,19.88h62.54Z"/><rect class="h" x="41.28" y="116.25" width="113.9" height="81.78"/><path class="g" d="M98.29,86.15c2.24,0,4.08-1.83,4.08-4.08s-1.83-4.08-4.08-4.08-4.08,1.83-4.08,4.08,1.83,4.08,4.08,4.08Z"/><path class="g" d="M133.81,86.15c2.24,0,4.08-1.83,4.08-4.08s-1.83-4.08-4.08-4.08-4.08,1.83-4.08,4.08,1.83,4.08,4.08,4.08Z"/><line class="h" x1="108.77" y1="93.33" x2="123.33" y2="93.33"/><line class="h" x1="123.33" y1="88.9" x2="123.33" y2="97.76"/><line class="h" x1="108.77" y1="88.9" x2="108.77" y2="97.76"/><path class="g" d="M183.5,93.98h0c-5.76,0-10.48,4.71-10.48,10.48v45.53h0c11.52,0,20.95-9.43,20.95-20.95v-24.58c0-5.76-4.71-10.48-10.48-10.48Z"/><rect class="h" x="155.18" y="126.07" width="17.84" height="32.65"/><rect class="h" x="23.44" y="126.07" width="17.84" height="32.65"/><rect class="h" x="135.84" y="232.54" width="14.24" height="20.94"/><rect class="h" x="91.11" y="232.54" width="14.24" height="20.94"/><g><path id="d" class="f" d="M123.09,137.04c-1.64,0-3.2,.15-4.58,.39-4.06,.72-4.79,2.22-4.79,4.98v3.65h9.59v1.22h-13.19c-2.79,0-5.23,1.68-5.99,4.86-.88,3.65-.92,5.93,0,9.75,.68,2.84,2.31,4.86,5.1,4.86h3.3v-4.38c0-3.17,2.74-5.96,5.99-5.96h9.58c2.67,0,4.79-2.2,4.79-4.87v-9.13c0-2.6-2.19-4.55-4.79-4.98-1.65-.27-3.36-.4-5-.39Zm-5.19,2.94c.99,0,1.8,.82,1.8,1.83s-.81,1.82-1.8,1.82-1.8-.81-1.8-1.82,.81-1.83,1.8-1.83Z"/><path id="e" class="f" d="M134.08,147.29v4.26c0,3.3-2.8,6.08-5.99,6.08h-9.58c-2.62,0-4.79,2.25-4.79,4.87v9.13c0,2.6,2.26,4.13,4.79,4.87,3.04,.89,5.95,1.05,9.58,0,2.41-.7,4.79-2.11,4.79-4.87v-3.65h-9.58v-1.22h14.37c2.79,0,3.83-1.94,4.79-4.86,1-3,.96-5.89,0-9.75-.69-2.77-2-4.86-4.79-4.86h-3.6Zm-5.39,23.12c.99,0,1.8,.81,1.8,1.82s-.81,1.83-1.8,1.83-1.8-.82-1.8-1.83,.81-1.82,1.8-1.82Z"/></g><path class="g" d="M11.98,93.98h0c5.76,0,10.48,4.71,10.48,10.48v45.53h0c-11.52,0-20.95-9.43-20.95-20.95v-24.58c0-5.76,4.71-10.48,10.48-10.48Z"/><g><path class="f" d="M91.52,153.2c-.41-2.52-1.32-4.94-2.67-7.12s-3.11-4.06-5.19-5.55c-3.13-2.25-6.85-3.52-10.7-3.65s-7.65,.88-10.93,2.91-5.87,4.99-7.47,8.49c-1.59,3.51-2.11,7.41-1.49,11.21,.48,2.93,1.63,5.69,3.33,8.09l35.35-11.69c-.02-.91-.08-1.81-.23-2.71Z"/><path class="f" d="M57.56,169.41c.49,.7,1.03,1.37,1.62,2,2.56,2.74,5.87,4.65,9.51,5.51,3.65,.85,7.46,.61,10.97-.71,3.51-1.31,6.54-3.64,8.73-6.68,1.45-2.02,2.49-4.3,3.06-6.72,.37-1.56,.51-3.16,.47-4.75l-34.35,11.36Z"/></g></g></g></g></svg>