<?xml version="1.0" encoding="UTF-8"?><svg xmlns="http://www.w3.org/2000/svg" viewBox="0 0 230.34 235.34"><defs><style>.bb{fill:#fff;}.bc{fill:none;stroke:#fff;stroke-linecap:round;stroke-linejoin:round;stroke-width:3px;}</style></defs><g id="a"/><g id="b"><g id="c"><g id="d"><g id="e"><g id="f"><path id="g" class="bc" d="M54.25,169.36l13.08-9.81c2.7-2.02,6.11-2.84,9.43-2.27,3.32,.57,6.26,2.48,8.13,5.28h0c2.74,4.12,2.74,9.48,0,13.6l-12.86,19.28c-3.95,5.92-9.6,10.5-16.2,13.15l-19.16,7.67v17.58"/><path id="h" class="bc" d="M60.12,128.33l-28.14,12.04c-8.3,3.56-14.91,10.17-18.47,18.48l-9.17,21.45c-1.88,4.38-2.85,9.1-2.84,13.86v39.67"/><path id="i" class="bc" d="M165.62,83.41v118.98c0,12.95-10.5,23.45-23.45,23.45h-58.62c-11.33,0-20.78-8.04-22.97-18.72"/><path id="j" class="bc" d="M60.12,163.97V73.43c0-12.95,10.5-23.45,23.45-23.45l61.57,.19"/><path id="k" class="bc" d="M67.37,201.07h97.64"/></g></g></g><g id="l"><g id="m"><g id="n"><path id="o" class="bc" d="M146.93,53.41V11.74c0-5.65,4.58-10.24,10.24-10.24h61.43c5.65,0,10.24,4.58,10.24,10.24v61.43c0,5.65-4.58,10.24-10.24,10.24h-61.43c-5.65,0-10.24-4.58-10.24-10.24v-19.76"/><path id="p" class="bc" d="M167.41,21.98h40.96"/><path id="q" class="bc" d="M167.41,42.46h40.96"/><path id="r" class="bc" d="M167.41,62.93h15.36"/></g></g></g><line class="bc" x1="94.68" y1="63.11" x2="131.06" y2="63.11"/><g id="s"><g id="t"><g id="u"><path id="v" class="bc" d="M82.15,107.72l-7.45-7.76c-1.34-1.34-1.67-3.39-.83-5.09h0c.63-1.27,1.84-2.15,3.24-2.38,1.4-.23,2.82,.23,3.82,1.23l1.22,1.22,1.22-1.22c1-1,2.42-1.46,3.82-1.23,1.4,.23,2.6,1.11,3.24,2.38h0c.85,1.7,.52,3.75-.83,5.09l-7.45,7.76Z"/></g></g></g><g id="w"><g id="x"><g id="y"><path id="a`" class="bc" d="M155.85,94.52l-4.19,1.64v-1.64c0-1.36-1.15-2.46-2.56-2.46h-10.25c-1.41,0-2.56,1.1-2.56,2.46v9.84c0,1.36,1.15,2.45,2.56,2.45h10.25c1.41,0,2.56-1.1,2.56-2.45v-1.64l4.19,1.64v-9.84Z"/></g></g></g><g id="aa"><g id="ab"><g id="ac"><path id="ad" class="bc" d="M118.08,171.81v9.35h-10.2v-9.35"/><path id="ae" class="bc" d="M105.34,173.51l7.65-5.1,7.65,5.1"/></g></g></g><g id="af"><g id="ag"><g id="ah"><path id="ai" class="bc" d="M140,181.66v-10.36c0-.44,.25-.85,.65-1.06,.4-.22,.89-.21,1.28,.02l8.99,5.18c.38,.22,.62,.62,.62,1.05s-.24,.83-.62,1.05l-8.99,5.18c-.39,.23-.88,.23-1.28,.02-.4-.22-.65-.62-.65-1.06h0Z"/></g></g></g><g id="aj"><g id="ak"><g id="al"><path id="am" class="bc" d="M121.6,99.16c0,4.44-4.56,8.32-8.92,9.18-4.36-.85-8.92-4.73-8.92-9.18v-5.51c0-1.01,.86-1.84,1.91-1.84h14.02c1.06,0,1.91,.82,1.91,1.84v5.51Z"/></g></g></g><g id="an"><g id="ao"><g id="ap"><path id="aq" class="bc" d="M144.46,137.63c2.46,0,4.46-2,4.46-4.46s-2-4.46-4.46-4.46-4.46,2-4.46,4.46,2,4.46,4.46,4.46Z"/><path id="ar" class="bc" d="M136.81,146.55c0-4.22,3.42-7.65,7.65-7.65s7.65,3.42,7.65,7.65h-15.29Z"/></g></g></g><g id="as"><g id="at"><g id="au"><path id="av" class="bc" d="M121.27,127.87l-3.82,12.75h-10.2l-2.55-7.65h15.04"/></g></g></g><g id="aw"><path id="ax" class="bc" d="M77.88,130.82v14.84"/><path id="ay" class="bc" d="M86.63,130.82v14.84"/><path id="b`" class="bc" d="M77.88,134.59h8.75"/><path id="ba" class="bc" d="M77.88,142.22h8.75"/></g><circle class="bb" cx="108.26" cy="146.67" r="2.17"/><circle class="bb" cx="115.91" cy="146.67" r="2.17"/><circle class="bb" cx="92.18" cy="131.47" r="2.17"/><circle class="bb" cx="92.18" cy="143.78" r="2.17"/><circle class="bb" cx="92.18" cy="137.63" r="2.17"/><circle class="bb" cx="72.13" cy="131.47" r="2.17"/><circle class="bb" cx="72.13" cy="143.78" r="2.17"/><circle class="bb" cx="72.13" cy="137.63" r="2.17"/></g></g></svg>