<?xml version="1.0" encoding="UTF-8"?><svg xmlns="http://www.w3.org/2000/svg" viewBox="0 0 147.8 250.81"><defs><style>.ag{fill:#fff;}.ag,.ah{stroke:#fff;stroke-linecap:round;stroke-linejoin:round;stroke-width:3px;}.ah{fill:none;}</style></defs><g id="a"/><g id="b"><g id="c"><g><line class="ag" x1="22.05" y1="173.95" x2="22.05" y2="182.76"/><g id="d"><g id="e"><g id="f"><path id="g" class="ah" d="M49.77,140.51h48.27"/><path id="h" class="ah" d="M73.9,121.97v18.53"/><path id="i" class="ah" d="M1.5,98.8H146.3"/><path id="j" class="ah" d="M136.64,15.4c5.33,0,9.65,4.15,9.65,9.27V112.7c0,5.12-4.32,9.27-9.65,9.27H11.15c-5.33,0-9.65-4.15-9.65-9.27V24.67c0-5.12,4.32-9.27,9.65-9.27"/><path id="k" class="ah" d="M30.46,80.27V10.77c0-5.12,4.32-9.27,9.65-9.27H107.69c5.33,0,9.65,4.15,9.65,9.27V80.27"/><path id="l" class="ah" d="M30.46,20.03H117.34"/><path id="m" class="ah" d="M88.38,38.57h9.65"/><path id="n" class="ah" d="M88.38,52.47h9.65"/><path id="o" class="ah" d="M54.84,52.47h24.13"/></g></g></g><g><rect class="ah" x="22.05" y="157.13" width="103.7" height="36.56" rx="6.27" ry="6.27"/><g><line class="ah" x1="70.19" y1="166.48" x2="75.12" y2="166.48"/><line class="ah" x1="88.89" y1="166.48" x2="93.81" y2="166.48"/><line class="ah" x1="107.58" y1="166.48" x2="112.5" y2="166.48"/><g><line class="ah" x1="51.87" y1="175.62" x2="56.79" y2="175.62"/><line class="ah" x1="70.56" y1="175.62" x2="75.49" y2="175.62"/><line class="ah" x1="89.26" y1="175.62" x2="94.18" y2="175.62"/><line class="ah" x1="107.95" y1="175.62" x2="112.87" y2="175.62"/></g><g><line class="ah" x1="51.87" y1="184.76" x2="56.79" y2="184.76"/><line class="ah" x1="56.79" y1="184.76" x2="89.26" y2="184.76"/><line class="ah" x1="89.26" y1="184.76" x2="94.18" y2="184.76"/><line class="ah" x1="107.95" y1="184.76" x2="112.87" y2="184.76"/></g><line class="ah" x1="51.87" y1="166.48" x2="56.79" y2="166.48"/><line class="ah" x1="34.92" y1="166.48" x2="39.85" y2="166.48"/><line class="ah" x1="34.92" y1="175.62" x2="39.85" y2="175.62"/><line class="ah" x1="34.92" y1="184.76" x2="39.85" y2="184.76"/></g></g><g id="p"><g id="q"><g id="r"><path id="s" class="ah" d="M54.84,38.57h25.74"/></g></g></g><g id="t"><g id="u"><g id="v"><path id="w" class="ah" d="M94.83,64.89l6.16,6.16-6.16,6.16"/><path id="x" class="ah" d="M76.35,64.89l-6.16,6.16,6.16,6.16"/><path id="y" class="ah" d="M88.67,64.89l-6.16,12.32"/></g></g></g><g id="a`"><g id="aa"><g id="ab"><path id="ac" class="ah" d="M18.23,249.31s-.07-21.11,6.93-33.35c2.64-4.62,7.56-7.48,12.88-7.48h13.03c1.08,0,2.1,.47,2.8,1.28,.71,.81,1.02,1.89,.87,2.96l-3.11,21.75c18.56-11.13,18.56,0,7.42,14.85"/><path id="ad" class="ah" d="M129.57,249.31s.07-21.11-6.93-33.35c-2.64-4.62-7.55-7.47-12.87-7.48h-13.04c-1.08,0-2.1,.47-2.8,1.28-.71,.81-1.02,1.89-.87,2.96l3.11,21.75c-18.56-11.13-18.56,0-7.42,14.85"/></g></g></g><path id="ae" class="ah" d="M52.58,71.06h9.65"/><path id="af" class="ah" d="M47.07,31.12l-6.16,6.16,6.16,6.16"/></g></g></g></svg>