<svg width="148" height="251" viewBox="0 0 148 251" fill="none" xmlns="http://www.w3.org/2000/svg">
<g clip-path="url(#clip0_63_3)">
<path d="M22.05 173.95V182.76" stroke="white" stroke-width="3" stroke-linecap="round" stroke-linejoin="round"/>
<path d="M49.77 140.51H98.04" stroke="white" stroke-width="3" stroke-linecap="round" stroke-linejoin="round"/>
<path d="M73.9 121.97V140.5" stroke="white" stroke-width="3" stroke-linecap="round" stroke-linejoin="round"/>
<path d="M1.5 98.8H146.3" stroke="white" stroke-width="3" stroke-linecap="round" stroke-linejoin="round"/>
<path d="M136.64 15.4C141.97 15.4 146.29 19.55 146.29 24.67V112.7C146.29 117.82 141.97 121.97 136.64 121.97H11.15C5.82 121.97 1.5 117.82 1.5 112.7V24.67C1.5 19.55 5.82 15.4 11.15 15.4" stroke="white" stroke-width="3" stroke-linecap="round" stroke-linejoin="round"/>
<path d="M30.46 80.27V10.77C30.46 5.65 34.78 1.5 40.11 1.5H107.69C113.02 1.5 117.34 5.65 117.34 10.77V80.27" stroke="white" stroke-width="3" stroke-linecap="round" stroke-linejoin="round"/>
<path d="M119.48 157.13H28.32C24.8572 157.13 22.05 159.937 22.05 163.4V187.42C22.05 190.883 24.8572 193.69 28.32 193.69H119.48C122.943 193.69 125.75 190.883 125.75 187.42V163.4C125.75 159.937 122.943 157.13 119.48 157.13Z" stroke="white" stroke-width="3" stroke-linecap="round" stroke-linejoin="round"/>
<path d="M70.19 166.48H75.12" stroke="white" stroke-width="3" stroke-linecap="round" stroke-linejoin="round"/>
<path d="M88.89 166.48H93.81" stroke="white" stroke-width="3" stroke-linecap="round" stroke-linejoin="round"/>
<path d="M107.58 166.48H112.5" stroke="white" stroke-width="3" stroke-linecap="round" stroke-linejoin="round"/>
<path d="M51.87 175.62H56.79" stroke="white" stroke-width="3" stroke-linecap="round" stroke-linejoin="round"/>
<path d="M70.56 175.62H75.49" stroke="white" stroke-width="3" stroke-linecap="round" stroke-linejoin="round"/>
<path d="M89.26 175.62H94.18" stroke="white" stroke-width="3" stroke-linecap="round" stroke-linejoin="round"/>
<path d="M107.95 175.62H112.87" stroke="white" stroke-width="3" stroke-linecap="round" stroke-linejoin="round"/>
<path d="M51.87 184.76H56.79" stroke="white" stroke-width="3" stroke-linecap="round" stroke-linejoin="round"/>
<path d="M56.79 184.76H89.26" stroke="white" stroke-width="3" stroke-linecap="round" stroke-linejoin="round"/>
<path d="M89.26 184.76H94.18" stroke="white" stroke-width="3" stroke-linecap="round" stroke-linejoin="round"/>
<path d="M107.95 184.76H112.87" stroke="white" stroke-width="3" stroke-linecap="round" stroke-linejoin="round"/>
<path d="M51.87 166.48H56.79" stroke="white" stroke-width="3" stroke-linecap="round" stroke-linejoin="round"/>
<path d="M34.92 166.48H39.85" stroke="white" stroke-width="3" stroke-linecap="round" stroke-linejoin="round"/>
<path d="M34.92 175.62H39.85" stroke="white" stroke-width="3" stroke-linecap="round" stroke-linejoin="round"/>
<path d="M34.92 184.76H39.85" stroke="white" stroke-width="3" stroke-linecap="round" stroke-linejoin="round"/>
<path d="M18.23 249.31C18.23 249.31 18.16 228.2 25.16 215.96C27.8 211.34 32.72 208.48 38.04 208.48H51.07C52.15 208.48 53.17 208.95 53.87 209.76C54.58 210.57 54.89 211.65 54.74 212.72L51.63 234.47C70.19 223.34 70.19 234.47 59.05 249.32" stroke="white" stroke-width="3" stroke-linecap="round" stroke-linejoin="round"/>
<path d="M129.57 249.31C129.57 249.31 129.64 228.2 122.64 215.96C120 211.34 115.09 208.49 109.77 208.48H96.73C95.65 208.48 94.63 208.95 93.93 209.76C93.22 210.57 92.91 211.65 93.06 212.72L96.17 234.47C77.61 223.34 77.61 234.47 88.75 249.32" stroke="white" stroke-width="3" stroke-linecap="round" stroke-linejoin="round"/>
<rect x="55.5" y="20.5" width="39" height="54" rx="3.5" stroke="white" stroke-width="3"/>
<path d="M64 30H86" stroke="white" stroke-width="3" stroke-linecap="round"/>
<path d="M64 49H86" stroke="white" stroke-width="3" stroke-linecap="round"/>
<path d="M64 39H79" stroke="white" stroke-width="3" stroke-linecap="round"/>
</g>
<path d="M62.5786 65V57.828H64.5586C65.0793 57.828 65.5523 57.8977 65.9776 58.037C66.4029 58.1763 66.7659 58.3927 67.0666 58.686C67.3673 58.972 67.5983 59.3387 67.7596 59.786C67.9283 60.2333 68.0126 60.765 68.0126 61.381C68.0126 61.997 67.9319 62.5323 67.7706 62.987C67.6093 63.4417 67.3783 63.8193 67.0776 64.12C66.7843 64.4133 66.4323 64.6333 66.0216 64.78C65.6109 64.9267 65.1563 65 64.6576 65H62.5786ZM64.2066 63.691H64.4706C64.7493 63.691 65.0023 63.6507 65.2296 63.57C65.4643 63.4893 65.6623 63.361 65.8236 63.185C65.9923 63.0017 66.1206 62.7633 66.2086 62.47C66.3039 62.1767 66.3516 61.8137 66.3516 61.381C66.3516 60.9557 66.3039 60.6 66.2086 60.314C66.1206 60.0207 65.9923 59.7897 65.8236 59.621C65.6623 59.445 65.4643 59.3203 65.2296 59.247C65.0023 59.1737 64.7493 59.137 64.4706 59.137H64.2066V63.691ZM71.7043 65.132C71.279 65.132 70.8866 65.0513 70.5273 64.89C70.1753 64.7287 69.871 64.4903 69.6143 64.175C69.365 63.8597 69.1706 63.471 69.0313 63.009C68.892 62.5397 68.8223 61.997 68.8223 61.381C68.8223 60.7797 68.892 60.2517 69.0313 59.797C69.1706 59.335 69.365 58.95 69.6143 58.642C69.871 58.3267 70.1753 58.092 70.5273 57.938C70.8866 57.7767 71.279 57.696 71.7043 57.696C72.1296 57.696 72.5183 57.7767 72.8703 57.938C73.2296 58.092 73.534 58.3267 73.7833 58.642C74.04 58.95 74.238 59.335 74.3773 59.797C74.5166 60.2517 74.5863 60.7797 74.5863 61.381C74.5863 61.997 74.5166 62.5397 74.3773 63.009C74.238 63.471 74.04 63.8597 73.7833 64.175C73.534 64.4903 73.2296 64.7287 72.8703 64.89C72.5183 65.0513 72.1296 65.132 71.7043 65.132ZM71.7043 63.735C72.0783 63.735 72.3753 63.537 72.5953 63.141C72.8153 62.745 72.9253 62.1583 72.9253 61.381C72.9253 60.633 72.8153 60.0647 72.5953 59.676C72.3753 59.2873 72.0783 59.093 71.7043 59.093C71.3303 59.093 71.0333 59.2873 70.8133 59.676C70.5933 60.0647 70.4833 60.633 70.4833 61.381C70.4833 62.1583 70.5933 62.745 70.8133 63.141C71.0333 63.537 71.3303 63.735 71.7043 63.735ZM78.916 65.132C78.4687 65.132 78.0433 65.055 77.64 64.901C77.244 64.7397 76.892 64.505 76.584 64.197C76.2833 63.889 76.0413 63.5077 75.858 63.053C75.682 62.591 75.594 62.0593 75.594 61.458C75.594 60.864 75.682 60.336 75.858 59.874C76.034 59.4047 76.276 59.0087 76.584 58.686C76.892 58.3633 77.255 58.1177 77.673 57.949C78.091 57.7803 78.5383 57.696 79.015 57.696C79.4697 57.696 79.8803 57.7913 80.247 57.982C80.6137 58.1653 80.918 58.3743 81.16 58.609L80.269 59.61C80.1003 59.456 79.9133 59.3313 79.708 59.236C79.51 59.1407 79.279 59.093 79.015 59.093C78.7583 59.093 78.5237 59.148 78.311 59.258C78.0983 59.3607 77.9113 59.511 77.75 59.709C77.596 59.907 77.475 60.149 77.387 60.435C77.299 60.721 77.255 61.0437 77.255 61.403C77.255 62.1437 77.4237 62.7193 77.761 63.13C78.0983 63.5333 78.5383 63.735 79.081 63.735C79.3377 63.735 79.5723 63.6763 79.785 63.559C80.005 63.4417 80.203 63.2877 80.379 63.097L81.27 64.076C80.676 64.78 79.8913 65.132 78.916 65.132ZM84.8737 65.132C84.3897 65.132 83.9094 65.0477 83.4327 64.879C82.9634 64.703 82.5344 64.4427 82.1457 64.098L83.0807 62.987C83.352 63.207 83.649 63.3867 83.9717 63.526C84.2944 63.6653 84.6317 63.735 84.9837 63.735C85.3357 63.735 85.5924 63.6763 85.7537 63.559C85.915 63.4417 85.9957 63.2913 85.9957 63.108C85.9957 62.9833 85.97 62.8807 85.9187 62.8C85.8674 62.712 85.794 62.635 85.6987 62.569C85.6034 62.503 85.486 62.4407 85.3467 62.382C85.2074 62.3233 85.0534 62.2573 84.8847 62.184L83.9607 61.788C83.7627 61.7147 83.5684 61.6193 83.3777 61.502C83.1944 61.3847 83.033 61.249 82.8937 61.095C82.7544 60.9337 82.6407 60.7503 82.5527 60.545C82.472 60.3323 82.4317 60.094 82.4317 59.83C82.4317 59.5367 82.494 59.2617 82.6187 59.005C82.7507 58.741 82.9304 58.5137 83.1577 58.323C83.3924 58.125 83.671 57.971 83.9937 57.861C84.3164 57.751 84.672 57.696 85.0607 57.696C85.5007 57.696 85.926 57.7767 86.3367 57.938C86.7474 58.0993 87.1177 58.334 87.4477 58.642L86.6227 59.665C86.3734 59.4817 86.124 59.3423 85.8747 59.247C85.6254 59.1443 85.3247 59.093 84.9727 59.093C84.7014 59.093 84.4814 59.148 84.3127 59.258C84.1514 59.368 84.0707 59.5293 84.0707 59.742C84.0707 59.9547 84.177 60.1197 84.3897 60.237C84.6097 60.347 84.8957 60.4643 85.2477 60.589L86.1167 60.963C86.5934 61.139 86.9674 61.381 87.2387 61.689C87.5174 61.997 87.6567 62.404 87.6567 62.91C87.6567 63.2107 87.5944 63.4967 87.4697 63.768C87.345 64.032 87.1654 64.2667 86.9307 64.472C86.696 64.67 86.4064 64.8313 86.0617 64.956C85.717 65.0733 85.321 65.132 84.8737 65.132Z" fill="white"/>
<defs>
<clipPath id="clip0_63_3">
<rect width="147.8" height="250.81" fill="white"/>
</clipPath>
</defs>
</svg>
